<svg width="23" height="23" viewBox="0 0 23 23" fill="none" xmlns="http://www.w3.org/2000/svg">
<rect width="23" height="23" rx="8" fill="#292524"/>
<path d="M8.66051 16V7.27273H12.2656C12.919 7.27273 13.483 7.40057 13.9574 7.65625C14.4347 7.90909 14.8026 8.26278 15.0611 8.71733C15.3196 9.16903 15.4489 9.6946 15.4489 10.294C15.4489 10.8963 15.3168 11.4233 15.0526 11.875C14.7912 12.3239 14.4176 12.6719 13.9318 12.919C13.446 13.1662 12.8693 13.2898 12.2017 13.2898H9.97727V11.6278H11.8097C12.1278 11.6278 12.3935 11.5724 12.6065 11.4616C12.8224 11.3509 12.9858 11.196 13.0966 10.9972C13.2074 10.7955 13.2628 10.5611 13.2628 10.294C13.2628 10.0241 13.2074 9.79119 13.0966 9.59517C12.9858 9.39631 12.8224 9.2429 12.6065 9.13494C12.3906 9.02699 12.125 8.97301 11.8097 8.97301H10.7699V16H8.66051Z" fill="white"/>
</svg>
